<svg xmlns="http://www.w3.org/2000/svg" xml:space="preserve" fill-rule="evenodd" stroke-linejoin="round" stroke-miterlimit="2" clip-rule="evenodd" viewBox="0 0 2500 2500"><path fill="#56a6b3" d="M-8-4h2511v2503H-8z"/><path fill="#fff" fill-rule="nonzero" d="M2175 1349a481 481 0 0 0-121-272 477 477 0 0 0-262-590 482 482 0 0 0-297-31 475 475 0 0 0-507-136 487 487 0 0 0-309 309 472 472 0 0 0-318 231 478 478 0 0 0 59 563 478 478 0 0 0 408 629c51 5 101 2 151-8a472 472 0 0 0 507 136 477 477 0 0 0 292-264l-30-4 75 11a77 77 0 0 0 86-91 477 477 0 0 0 266-483Zm-564-778a359 359 0 0 1 337 417l-12-6-379-220-15-6a64 64 0 0 0-48 6l-91 53-73-147 87-50c59-34 126-50 194-47Zm337 417v1-1ZM543 1695a369 369 0 0 1-16-183l11 7 140 81 56-112-134-78a359 359 0 0 1-131-488h1a345 345 0 0 1 129-130c18-11 37-19 57-27v452a67 67 0 0 0 8 31 64 64 0 0 0 23 23l121 70 38-78-63-37-1-1-1-1-1-1V778a358 358 0 0 1 586-274l-12 6-115 67h-2c-28 0-54 15-67 39L974 729l-13 10-10 13a62 62 0 0 0-8 31v286l-371 743 16-32-19-29c-10-18-19-36-26-56Zm525-876-37 76v-53l1-1 1-1 35-21ZM567 1825Zm358 101a357 357 0 0 1-169-18l341-49-40 23c-41 23-85 38-132 44Zm665 48a356 356 0 0 1-482 22l12-6 233-135 295 43c-16 28-36 53-58 76Zm-420-142h1-1Zm2-2Zm2-2 1-1-1 1Zm2-2 1-1-1 1Zm2-3 1-1-1 1Zm2-4h1-1Zm1-1 1-1-1 1Zm2-4Zm1-1v-1 1Zm2-4Zm1-2 4-17 46-306 41 271-91 52Zm205-62-79-528c-3-21-7-38-12-51-17-46-50-51-64-51s-47 5-64 51c-5 13-9 30-12 51l-79 528-376 54 531-1061 531 1061-376-54Zm302-349-84-169 81 47 1 1 1 1 1 1v119Zm357 34a356 356 0 0 1-195 289l-37-74v-362l-2-16-6-15a64 64 0 0 0-23-23l-249-144-96-192 42-24 1-1h4l384 222a356 356 0 0 1 177 340Z"/></svg>