<svg xmlns="http://www.w3.org/2000/svg" viewBox="0 0 123 123"><path fill="#fff" d="M0 0h123v123H0z"/><path fill="#3e3174" d="M88.35 61.18h-.01l-.01-.02a3.44 3.44 0 0 0-2.43-1.02H36.3c-.89 0-1.7.35-2.33.9l-.11.11a3.54 3.54 0 0 0-1.02 2.44v41.34c0 .91.37 1.8 1.01 2.43l.02.02c.63.64 1.5 1.02 2.44 1.02H85.9a3.44 3.44 0 0 0 3.45-3.46V63.61c0-.94-.38-1.8-1-2.43ZM55.9 64.6a2.25 2.25 0 0 1 0 4.5 2.25 2.25 0 0 1 0-4.5Zm-7.85 0a2.26 2.26 0 0 1 2.3 2.18 2.26 2.26 0 0 1-2.18 2.3h-.12a2.27 2.27 0 0 1-2.19-2.3c.04-1.18 1-2.15 2.18-2.18h.01Zm-7.84 0a2.25 2.25 0 0 1 2.3 2.18 2.25 2.25 0 0 1-2.18 2.3h-.12a2.27 2.27 0 0 1-2.2-2.3c.04-1.18 1-2.15 2.19-2.18Zm46.03 40.33c0 .1-.05.17-.1.24a.33.33 0 0 1-.24.1H36.3a.35.35 0 0 1-.23-.1.44.44 0 0 1-.09-.24v-32.4c.1.02.22.02.34.02h49.6c.1 0 .21 0 .33-.02v32.4h-.01Z"/><path fill="#3e3174" d="M56.92 96.44H41.91c-.72 0-1.3.65-1.3 1.44 0 .79.58 1.42 1.3 1.42h15.01c.72 0 1.3-.63 1.3-1.42 0-.8-.58-1.44-1.3-1.44Zm22.38 0H63.1c-.73 0-1.31.65-1.31 1.44 0 .79.59 1.42 1.31 1.42h16.2c.73 0 1.32-.63 1.32-1.42 0-.8-.6-1.44-1.32-1.44Zm-38.37-20.3h39.52V91.6H40.93z"/><path fill="#232f3e" d="M60.68 23.83c-1.5-.12-3-.1-4.48.05-4.59.44-9.04 2.1-12.71 4.96-4.26 3.3-7.5 8.23-8.74 14.76l-.39 2.04-2.03.36c-2 .35-3.78.83-5.34 1.44a17.85 17.85 0 0 0-4.04 2.17c-.95.68-1.76 1.44-2.45 2.27a13.81 13.81 0 0 0-3.11 9.04 16.34 16.34 0 0 0 3.08 9.38c.74 1.02 1.6 1.95 2.57 2.77 1.01.83 2.15 1.52 3.36 2.01.71.3 1.47.54 2.26.74v6.1a22 22 0 0 1-4.53-1.32 18.85 18.85 0 0 1-4.92-2.95 21.01 21.01 0 0 1-3.58-3.84 22.38 22.38 0 0 1-4.2-12.88c-.04-4.6 1.4-9.18 4.49-12.9 1-1.2 2.18-2.3 3.53-3.28a23.81 23.81 0 0 1 5.4-2.89c1.4-.55 2.9-1 4.48-1.37A29.42 29.42 0 0 1 39.84 24.1a30.55 30.55 0 0 1 15.8-6.17c2.99-.29 6.02-.16 8.98.4-.07.27-.12.53-.16.81v.05a7.3 7.3 0 0 0-.06 1.4c-.63.24-1.21.58-1.74.98l-.03.02a7.28 7.28 0 0 0-1.95 2.24Zm43.05 15.62a22.34 22.34 0 0 1 3.8 4.48c2.6 4 3.93 9.35 3.88 14.59-.06 5.13-1.44 10.24-4.28 14a22.33 22.33 0 0 1-7.05 6.04c-1.95 1.09-4.13 2-6.52 2.72v-6.3a26.33 26.33 0 0 0 3.58-1.63 16.3 16.3 0 0 0 5.2-4.4c2.04-2.71 3.04-6.54 3.08-10.47.05-4.13-.96-8.27-2.92-11.28a16.89 16.89 0 0 0-2.6-3.12c.04-.4.06-.82.03-1.24a7.07 7.07 0 0 0 1.74-.98l.03-.02a7.39 7.39 0 0 0 2.03-2.39Z"/><path fill="#f90" d="m71.9 42.52-5.11 2.2 4.74 2.02 5.49-2.02-5.12-2.2Zm-7.68 2.75-.17 9.89 7.48 3.3V48.17l-7.31-2.92Zm15.38 0-6.76 2.57v9.68l6.76-2.75v-9.5Zm8.07-30.77-5.15 2.2 4.78 2.03 5.49-2.03-5.12-2.2Zm-7.14 2.92v9.89l6.38 1.86.2-9-6.58-2.75Zm14.28.56-6.05 2.57v9.71l6.05-2.75v-9.54ZM63.48 28.42l-5.12 2.2 4.74 2.03 5.49-2.03-5.12-2.2Zm-7.7 2.76-.16 9.88 7.48 3.3V34.09l-7.31-2.92Zm15.39 0-6.76 2.57v9.68l6.76-2.75v-9.51Zm8.79-3.11-5.12 2.2 4.73 2.02 5.5-2.03-5.12-2.2Zm-7.7 2.75-.16 9.88 7.48 3.3V33.74l-7.31-2.92Zm15.39 0-6.77 2.57v9.68l6.77-2.75v-9.51Zm16.12-16.32-5.12 2.2 4.73 2.03 5.5-2.03-5.11-2.2Zm-7.7 2.75-.16 9.89 7.48 3.3V20.16l-7.31-2.93v.01Zm15.39 0-6.77 2.57v9.69l6.77-2.75v-9.52.01Z"/></svg>