<svg xmlns="http://www.w3.org/2000/svg" viewBox="0 0 3000 3000"><defs><linearGradient id="a" x1="617.9" x2="686.7" y1="278.6" y2="284.8" gradientTransform="translate(-15175 -4839) scale(26.04)" gradientUnits="userSpaceOnUse"><stop offset="0" stop-color="#f32b44"/><stop offset=".6" stop-color="#a4070a"/></linearGradient><linearGradient id="b" x1="664.5" x2="634" y1="282.8" y2="280.1" gradientTransform="translate(-15175 -4839) scale(26.04)" gradientUnits="userSpaceOnUse"><stop offset="0" stop-opacity=".4"/><stop offset="1" stop-opacity="0"/></linearGradient><linearGradient id="c" x1="644" x2="593.5" y1="191.1" y2="265.9" gradientTransform="translate(-15175 -4839) scale(26.04)" gradientUnits="userSpaceOnUse"><stop offset="0" stop-color="#800600"/><stop offset=".6" stop-color="#c72127"/><stop offset=".7" stop-color="#c13959"/><stop offset=".8" stop-color="#bc4b81"/><stop offset=".9" stop-color="#b95799"/><stop offset="1" stop-color="#b85ba2"/></linearGradient><linearGradient id="d" x1="645.2" x2="634.4" y1="189.6" y2="205.5" gradientTransform="translate(-15175 -4839) scale(26.04)" gradientUnits="userSpaceOnUse"><stop offset="0" stop-opacity=".4"/><stop offset="1" stop-opacity="0"/></linearGradient><linearGradient id="e" x1="662.4" x2="662.4" y1="190.6" y2="284.3" gradientTransform="translate(-15175 -4839) scale(26.04)" gradientUnits="userSpaceOnUse"><stop offset="0" stop-color="#ffb900"/><stop offset=".2" stop-color="#ef8400"/><stop offset=".3" stop-color="#e25c01"/><stop offset=".4" stop-color="#db4401"/><stop offset=".5" stop-color="#d83b01"/></linearGradient><linearGradient id="f" x1="1523.8" x2="2152.1" y1="2611.2" y2="1523" gradientTransform="matrix(1 0 0 -1 0 3672)" gradientUnits="userSpaceOnUse"><stop offset="0" stop-color="#107c41"/><stop offset="1" stop-color="#008272"/></linearGradient><linearGradient id="g" x1="1456.6" x2="1493.3" y1="213" y2="213" gradientTransform="matrix(.615 .615 -.926 .926 1284 587)" gradientUnits="userSpaceOnUse"><stop offset="0" stop-opacity=".1"/><stop offset="1" stop-opacity="0"/></linearGradient><linearGradient id="j" x1="1407.5" x2="1444.2" y1="536.2" y2="536.2" gradientTransform="matrix(-.615 .615 .566 .566 2180 586)" gradientUnits="userSpaceOnUse"><stop offset="0" stop-opacity=".1"/><stop offset="1" stop-opacity="0"/></linearGradient><linearGradient id="l" x1="1694.7" x2="2152.8" y1="509.6" y2="51.4" gradientTransform="matrix(.7 .7 -.7 .7 746 47)" gradientUnits="userSpaceOnUse"><stop offset="0" stop-color="#ddd"/><stop offset="1" stop-color="#fff"/></linearGradient><radialGradient id="h" cx="1149.2" cy="171.9" r="63.8" fx="1149.2" fy="171.9" gradientTransform="matrix(.7 .7 -.7 .7 1059 926)" gradientUnits="userSpaceOnUse"><stop offset=".5" stop-opacity=".1"/><stop offset="1" stop-opacity="0"/></radialGradient><radialGradient id="i" cx="1518.5" cy="2258.6" r="63.8" fx="1518.5" fy="2258.6" gradientTransform="rotate(-135 1670 1727)" gradientUnits="userSpaceOnUse"><stop offset=".5" stop-opacity=".1"/><stop offset="1" stop-opacity="0"/></radialGradient><radialGradient id="k" cx="1560.5" cy="2000.5" r="63.9" fx="1560.5" fy="2000.5" gradientTransform="matrix(1 0 0 -1 -37 3612)" gradientUnits="userSpaceOnUse"><stop offset=".5" stop-opacity=".1"/><stop offset="1" stop-opacity="0"/></radialGradient></defs><path fill="#dcccff" d="M3 0h3000v3000H3z"/><path fill="url(#a)" d="M974 2218c-71 0-129 55-129 123 0 47 27 87 67 108l497 267c65 38 144 44 216 19l170-47v-471c1 1-821 1-822 1h1Z"/><path fill="url(#b)" d="M974 2218c-71 0-129 55-129 123 0 47 27 87 67 108l497 267c65 38 144 44 216 19l170-47v-471c1 1-821 1-822 1h1Z"/><path fill="url(#c)" d="M1614 260c-64-18-132-12-190 17-8 3-810 439-810 439-11 5-21 12-31 18l-3 2-18 14-8 7-9 10-27 31c-28 41-43 89-43 138v1158a127 127 0 0 0 178 114l230-125c53-25 91-75 102-134l1-5 1-14 1-12v-808c0-54 24-103 62-137 0 0-18 16 0 0s41-30 69-39l679-237V313l-184-53Z"/><path fill="url(#d)" d="M1614 260c-64-18-132-12-190 17-8 3-810 439-810 439-11 5-21 12-31 18l-3 2-18 14-8 7-9 10-27 31c-28 41-43 89-43 138v1158a127 127 0 0 0 178 114l230-125c53-25 91-75 102-134l1-5 1-14 1-12v-808c0-54 24-103 62-137 0 0-18 16 0 0s41-30 69-39l679-237V313l-184-53Z"/><path fill="url(#e)" d="m2347 467-722-204a249 249 0 0 1 170 236v2005c1 107-70 198-170 232l722-201a249 249 0 0 0 179-236V704c1-111-75-205-179-237Z"/><path d="M2327 1079h-532v1094h532c44 0 80-36 80-80v-933c0-45-36-80-80-81Z" opacity=".1"/><path d="M2283 1123h-488v1094h488c44 0 80-36 80-80v-934c0-44-36-80-80-80Z" opacity=".2"/><path d="M2283 1123h-488v1006h488c44 0 80-35 80-80v-846c0-44-36-80-80-80Z" opacity=".2"/><path d="M2239 1123h-444v1006h444c45 0 81-35 81-80v-846c0-44-36-80-81-80Z" opacity=".2"/><path fill="url(#f)" d="M1437 1123h802c45 0 81 36 81 80v803c0 44-36 80-81 80h-802c-44 0-80-36-80-80v-803c0-44 36-80 80-80Z"/><path fill="url(#g)" d="m1785 1872 390-390 23 22-391 391-22-23Z"/><circle cx="1761.5" cy="1849.5" r="63.8" fill="url(#h)"/><circle cx="2152.1" cy="1458.8" r="63.8" fill="url(#i)"/><path fill="url(#j)" d="m1478 1657 23-23 238 238-23 23-238-238Z"/><circle cx="1523.7" cy="1611.6" r="63.8" fill="url(#k)" transform="rotate(-45 1524 1612)"/><rect width="216" height="432" x="1578" y="1450" fill="#dbdbdb" rx="31.9" ry="31.9" transform="rotate(-45 1685 1665)"/><rect width="648" height="216" x="1591" y="1482" fill="url(#l)" rx="31.9" ry="31.9" transform="rotate(-45 1914 1589)"/></svg>