<svg xmlns="http://www.w3.org/2000/svg" viewBox="0 0 619.5 619.5"><path fill="#fff" d="M0 0h619.5v619.5H0z"/><path fill="#00c853" d="m399.4 346.6 147.1 147a37.7 37.7 0 0 1 0 53.3 37.7 37.7 0 0 1-53.3 0L346.1 400Z"/><path d="m346.1 399.8 53.3-53.3 42 42-53.3 53.3z"/><path fill="#00c853" d="M425.5 246a180 180 0 1 0-180 180 180 180 0 0 0 180-180Z"/><circle cx="245.5" cy="246" r="136" fill="#c9f3ff"/><path d="M445.5 378.5a19.4 19.4 0 0 1 37 8.2v9.3a10 10 0 0 0 20 0v-9.3A39.5 39.5 0 0 0 431 364l-21.6-21.7a190.3 190.3 0 0 0 24.4-70.5 39.4 39.4 0 0 0 60.7-33.3v-19.4a39.4 39.4 0 0 0-67-28.1 188.5 188.5 0 0 0-23.1-49.4 10 10 0 0 0-17 10.8l.3.2c44.1 67 35 156.8-21.9 213.6a170 170 0 0 1-240.4-240.4 170.6 170.6 0 0 1 213.1-22.2 10 10 0 1 0 11-16.8 190 190 0 0 0-225.9 13.5V90a34 34 0 0 0-68 0v36a34 34 0 0 0 21.7 31.7 190.3 190.3 0 0 0 34 222.7l5.2 5v22.3a19.4 19.4 0 0 1-38.9 0v-19.5a10 10 0 0 0-20 0v19.5a39.5 39.5 0 0 0 78.9 0v-6.1a190.4 190.4 0 0 0 205.5 8.2L486 554a47.7 47.7 0 0 0 67.4-67.4Zm-10-159.4a19.4 19.4 0 0 1 38.9 0v19.4a19.4 19.4 0 0 1-38.9 0v-19.4ZM75.5 126V90a14 14 0 0 1 28 0v26.8a10 10 0 0 0 .3 2.6 193.6 193.6 0 0 0-16 20.5A14 14 0 0 1 75.5 126Zm304.4 254.3a189.6 189.6 0 0 0 18-21l29.4 29.3-39.2 39.1-29.2-29.2a194 194 0 0 0 21-18.2ZM539.4 540a27.7 27.7 0 0 1-39.2 0l-98-98 39.2-39.2 98 98a27.7 27.7 0 0 1 0 39.2Zm-437.1 8h-8v-68.4a10 10 0 0 0-17-7l-18.9 18.8a10 10 0 0 0 14.2 14.1l1.7-1.7V548h-8a10 10 0 1 0 0 20h36a10 10 0 0 0 0-20Z"/><path d="M191.1 548h-8v-68.4a10 10 0 0 0-17-7l-18.8 18.8a10 10 0 0 0 14.1 14.1l1.8-1.7V548h-8a10 10 0 0 0 0 20h36a10 10 0 0 0 0-20Zm177.7 0h-8v-68.4a10 10 0 0 0-17-7l-18.9 18.8a10 10 0 1 0 14 14.4l.2-.3 1.7-1.7V548h-8a10 10 0 0 0 0 20h36a10 10 0 0 0 0-20Zm-107.2-78.4a39.5 39.5 0 0 0-39.5 39.5v19.4a39.4 39.4 0 1 0 78.9 0v-19.4a39.5 39.5 0 0 0-39.4-39.5Zm19.4 59a19.4 19.4 0 0 1-38.9 0V509a19.4 19.4 0 0 1 38.9 0Zm276.5-101.5h-8v-68.3a10 10 0 0 0-17-7l-18.8 18.8a10 10 0 0 0 14.1 14l1.8-1.7v44.2h-8a10 10 0 0 0 0 20h35.9a10 10 0 0 0 0-20ZM428 91.9l1.7-1.8v44.2h-8a10 10 0 0 0 0 20h36a10 10 0 0 0 0-20h-8V66a10 10 0 0 0-17.1-7l-18.8 18.7A10 10 0 0 0 427.9 92ZM528 56a39.5 39.5 0 0 0-39.4 39.4V115a39.5 39.5 0 0 0 78.9 0V95.4A39.5 39.5 0 0 0 528 56Zm19.5 59a19.4 19.4 0 0 1-38.9 0V95.3a19.4 19.4 0 1 1 38.9-.9v1Zm10 143h-8v-68.4a10 10 0 0 0-17-7l-18.8 18.8a10 10 0 0 0 14.1 14.1l1.8-1.7V258h-8a10 10 0 0 0 0 20h35.9a10 10 0 0 0 0-20Zm-247.7-68.3a10 10 0 0 0-11 2.2l-22.5 22.6a10 10 0 0 0 14.1 14.1l5.6-5.5V283h-11.6a10 10 0 0 0 0 20h43.1a10 10 0 0 0 0-20H316v-84a10 10 0 0 0-6.2-9.3ZM198.8 303a45.4 45.4 0 0 0 45.4-45.3v-23.4a45.3 45.3 0 1 0-90.7 0v23.3a45.4 45.4 0 0 0 45.3 45.4Zm-25.3-68.7a25.3 25.3 0 1 1 50.7 0v23.3a25.3 25.3 0 1 1-50.7 0Z"/><circle cx="245.5" cy="246" r="136" fill="#caecff" opacity=".3" style="isolation:isolate"/><path d="m142.3 335-.1.1a10 10 0 0 0 13.9 14.4l.2-.2.1-.1a10 10 0 1 0-13.9-14.4 3 3 0 0 0-.2.3Zm224-208.6a10 10 0 0 0 15-13.3 8.3 8.3 0 0 0-.8-.8l-.7-.7a10 10 0 0 0-14.8 13.5l.7.7Z"/><path d="M176.3 374.6a147.1 147.1 0 0 0 69.4 17.4 145.5 145.5 0 0 0 103-42.7 146 146 0 0 0 0-206.5A146 146 0 0 0 117 315.2a10 10 0 1 0 17.9-9 126.8 126.8 0 0 1 21.6-149.4 126 126 0 0 1 178.2 178.3A127 127 0 0 1 185.9 357a10 10 0 0 0-9.5 17.6Z"/></svg>