<svg xmlns="http://www.w3.org/2000/svg" viewBox="0 0 512 512"><path fill="#f60" d="M0 0h512v512H0z"/><path d="M60.8 308.6v-90.2L243 323.6v90.2Z" fill="#232323"/><path d="M60.8 218.4 269 98.1l182.2 105.3L243 323.7ZM243 414l208.3-120.4v-90.2L243 323.7Z" fill="#333"/><path d="M175.4 314.7v30l52 30.2v-30.1l-15.7-9.1v-6l-20.8-12v5.9Z" fill="none" stroke="#000" stroke-miterlimit="28.6" stroke-width="7.2"/><path d="m175.4 344.8 31.2-18-10.4-6-5.3 3-15.7-9v30Z" fill="#333"/><path d="m191 323.8 5.2-3-5.3-3Z" fill="#1a1a1a"/><path d="M227.4 375v-30.2l-15.7-9.1v-6l-5.3-3-31.2 18Z" fill="#666"/><path d="m76.5 287.7 52 30.2v-30.2l-52-30v30Z" fill="none" stroke="#000" stroke-miterlimit="108.2" stroke-width="7.2"/><path d="m76.5 287.7 52 30.2v-30.2l-52-30v30Z" fill="#666"/><path d="m76.5 287.7 26-15-26-15Z" fill="#333"/><path d="M60.8 308.6 243 413.8l208.3-120.2v-90.2L269.1 98.2 60.8 218.4Z" fill="none" stroke="#191919" stroke-miterlimit="11.3" stroke-width="1.6"/><path d="M60.8 218.4 243 323.6l208.3-120.2M243 414v-90.3" fill="none" stroke="#191919" stroke-miterlimit="11.3" stroke-width="1.6"/><path d="M88.2 314.9a12.4 12.4 0 0 1-4.4-3.9 8.8 8.8 0 0 1-1.5-4.5l1.7 1a5.6 5.6 0 0 0 1.4 3.2 10.3 10.3 0 0 0 2.7 2.4 5 5 0 0 0 2.5.7c.6 0 .9-.5 1-1.3a3.4 3.4 0 0 0-1-2.4 31.8 31.8 0 0 0-3.5-3 15.8 15.8 0 0 1-3.4-3.4 5.6 5.6 0 0 1-1-3.1c0-1.2.4-2 1.3-2.2s2.1 0 3.6 1a11.7 11.7 0 0 1 3.8 3.2 7 7 0 0 1 1.5 4.1l-1.8-1a6 6 0 0 0-3.4-4.6 3.8 3.8 0 0 0-2.3-.7 1 1 0 0 0-.8 1.2 2.6 2.6 0 0 0 .6 1.7 16.9 16.9 0 0 0 2.6 2.4l3 2.6a10.5 10.5 0 0 1 1.8 2.4 5.5 5.5 0 0 1 .8 2.8 2.2 2.2 0 0 1-1.5 2.4 7 7 0 0 1-3.7-1ZM105.2 311.2l-7.5-4.2v4.6l6.5 3.7v1.8l-6.5-3.7v6.7l-1.8-1v-14.8l9.3 5.3ZM107.6 310.8l5.2 2.9a15.1 15.1 0 0 1 2.8 2 6.7 6.7 0 0 1 1.8 2.5 8 8 0 0 1 .7 2.9c0 1.4-.5 2.4-1.4 2.6s-2.1 0-3.8-1l-3.5-2v6l-1.8-1Zm1.9 8.2 3.5 2c1.2.6 2 .9 2.5.6s.7-.7.7-1.6a5.6 5.6 0 0 0-.3-1.8 3.7 3.7 0 0 0-1-1.4 11.6 11.6 0 0 0-2-1.2l-3.3-2ZM189.3 373l-2-1-1.3-4.8a7.3 7.3 0 0 0-1.1-2.3 4.8 4.8 0 0 0-2-1.7l-3.3-2v6.3l-1.8-1v-14.8l6.2 3.5a17.9 17.9 0 0 1 2.6 1.8 6 6 0 0 1 1.6 2.3 8.4 8.4 0 0 1 .7 2.8 2.3 2.3 0 0 1-.9 2 2.3 2.3 0 0 1-2.3 0 9 9 0 0 1 2.2 4Zm-9.7-13.6 4.1 2.3a4 4 0 0 0 2.5.8c.5-.1.8-.6.8-1.6 0-1.7-1-3-2.9-4.1l-4.4-2.6ZM198.3 373.4c0 1.8-.4 2.9-1 3.3s-1.6.2-2.8-.6a7.4 7.4 0 0 1-2.7-2.6 7 7 0 0 1-1-3.6v-.3l1.8 1a3.9 3.9 0 0 0 1.8 3.8 2 2 0 0 0 1.5.3c.4-.3.6-1 .6-2.2v-10.2l1.8 1ZM209.7 381l-1.9-1.1v3.6l-1.8-1v-3.6l-5.9-3.4v-1.7l6.4-6.2 1.4.8v9.8l1.9 1.1Zm-3.7-3.7v-6.9l-4.2 4.5ZM213.7 378a3.8 3.8 0 0 1 2.6.6 9.5 9.5 0 0 1 3 3 8.2 8.2 0 0 1 1.4 4.3c0 1.6-.4 2.5-1.3 3s-2 .3-3.5-.4a9.5 9.5 0 0 1-3-2.7 8.1 8.1 0 0 1-1.4-4l1.8 1.2a5.9 5.9 0 0 0 .9 2.5 4.4 4.4 0 0 0 1.7 1.5 2 2 0 0 0 2 .2 2.6 2.6 0 0 0 1-2.1 5.8 5.8 0 0 0-.9-3 5.1 5.1 0 0 0-2.1-2 2.4 2.4 0 0 0-2.5-.2l-1.4-.8.6-7.4 7.3 4.1.1 1.8-6-3.4Z" fill="#fff"/><ellipse cx="142.7" cy="315.1" rx="2.3" ry="4" transform="rotate(-28 142.7 315.1)" fill="#00bf00" stroke="#000" stroke-linejoin="round" stroke-width=".2"/><ellipse cx="156.8" cy="322.7" rx="2.3" ry="4" transform="rotate(-28 156.8 322.8)" fill="#00bf00" stroke="#000" stroke-linejoin="round" stroke-width=".2"/><ellipse cx="142.7" cy="302.1" rx="2.3" ry="4" transform="rotate(-28 142.7 302)" fill="#00bf00" stroke="#000" stroke-linejoin="round" stroke-width=".2"/><ellipse cx="156.6" cy="309.8" rx="2.3" ry="4" transform="rotate(-28 156.6 309.8)" fill="#00bf00" stroke="#000" stroke-linejoin="round" stroke-width=".2"/><ellipse cx="142.7" cy="327.6" rx="2.3" ry="4" transform="rotate(-28 142.7 327.6)" fill="#00bf00" stroke="#000" stroke-linejoin="round" stroke-width=".2"/><ellipse cx="156.8" cy="335.2" rx="2.3" ry="4" transform="rotate(-28 156.8 335.3)" fill="#00bf00" stroke="#000" stroke-linejoin="round" stroke-width=".2"/><path d="m269 368.8 26-45M295 353.7l26-45M321.2 338.7l26-45M347.2 323.7l26-45M373.2 308.6l26-45M399.3 293.6l26-45" fill="none" stroke="#191919" stroke-linecap="round" stroke-miterlimit="11.3" stroke-width="5.8"/><path d="m96 218 3.6-2 11.8 1.4-2.6-7 3.7-2.1 10.4 6-2.4 1.5-9.2-5.3 2.4 7-2.4 1.4-11.6-1.5 9.1 5.4-2.4 1.4ZM135.2 202l.6.5-10.3 6a6.2 6.2 0 0 0 3.4.5 11.8 11.8 0 0 0 4.2-1.7 17.9 17.9 0 0 0 2.3-1.6 13.7 13.7 0 0 0 1.9-1.8l1.2.7a14.4 14.4 0 0 1-2 1.7l-2.4 1.6a17.8 17.8 0 0 1-6.4 2.4 7.3 7.3 0 0 1-4.8-.5c-1.3-.8-1.8-1.8-1.3-3s1.7-2.2 3.7-3.5a14.4 14.4 0 0 1 5.4-2 7 7 0 0 1 4.5.8Zm-2.6 1a4.2 4.2 0 0 0-2.8-.2 8.7 8.7 0 0 0-3.3 1.2 6 6 0 0 0-2.4 2.2 1.4 1.4 0 0 0 .4 1.8ZM145.3 193.2l-4.3-2.5 2.2-1.3 10.9 6.3-2.1 1.3-1.2-.7a2.4 2.4 0 0 1-.8 1.7 9.9 9.9 0 0 1-2.2 1.7 11.5 11.5 0 0 1-5.1 1.7 8 8 0 0 1-4.6-.8c-1.3-.7-1.7-1.6-1.4-2.7a5.8 5.8 0 0 1 2.8-3 14.7 14.7 0 0 1 3-1.3 14 14 0 0 1 2.8-.4Zm-4.9 6a5.7 5.7 0 0 0 3.2.8 8 8 0 0 0 3.6-1.2 3.5 3.5 0 0 0 2-2.1c.2-.8-.3-1.3-1.3-1.9a5.9 5.9 0 0 0-3.2-.7 8.1 8.1 0 0 0-3.6 1.2 3.5 3.5 0 0 0-2 2.1 2 2 0 0 0 1.3 1.9ZM150.9 188.4l2.2-1.3 7.8 4.6-2.2 1.3Zm-3-1.7 2.2-1.3 1.6.9-2.2 1.3ZM167.9 183a17.1 17.1 0 0 0-3.4 2.3c-.5.6-.5 1 0 1.4a2.8 2.8 0 0 0 2 .2 7.8 7.8 0 0 0 2.5-1 5.2 5.2 0 0 0 2.3-2.3c.2-.7-.1-1.3-1-1.8l-.2-.2Zm3.9-3 4.5 2.5-2.2 1.3-1.2-.7a2.5 2.5 0 0 1-.9 1.8 11.3 11.3 0 0 1-2.4 1.9 10.6 10.6 0 0 1-4 1.5 4.2 4.2 0 0 1-3-.3c-1-.6-1-1.2-.5-2.2a12.8 12.8 0 0 1 4-3.1l3-1.9a3.6 3.6 0 0 0-2.4-.3 10.3 10.3 0 0 0-3.3 1.4l-2.2 1.4c-.7.4-1.1 1-1.6 1.6l-1.2-.7a15.8 15.8 0 0 1 2-1.7l2.1-1.4a14.1 14.1 0 0 1 5.3-2.1 8 8 0 0 1 4 1ZM128.3 221l1.5.9a22 22 0 0 0-3.7 1 21.3 21.3 0 0 0-3.3 1.6c-2 1.2-3.3 2.3-3.6 3.4s0 2 1.4 2.9a7.5 7.5 0 0 0 4.9.8 15.6 15.6 0 0 0 5.8-2.2 15.7 15.7 0 0 0 2.7-2 8.6 8.6 0 0 0 1.7-2.1l1.4.8a14 14 0 0 1-2 2.2 23.9 23.9 0 0 1-2.7 2 21 21 0 0 1-7.9 3 9.8 9.8 0 0 1-6.4-1c-1.7-1-2.2-2.2-1.6-3.7s2.3-3.1 5-4.7a21.7 21.7 0 0 1 3.3-1.6 22.1 22.1 0 0 1 3.5-1.2ZM140 217.2c-1.3.7-2 1.4-2 2.1s.2 1.4 1.1 2a5.7 5.7 0 0 0 3.4.7 8.7 8.7 0 0 0 3.7-1.3c1.2-.7 2-1.4 2-2.1s-.2-1.4-1.2-2a5.6 5.6 0 0 0-3.3-.7 9.1 9.1 0 0 0-3.8 1.3Zm-1.1-.6a14.4 14.4 0 0 1 5.7-2.1 7.6 7.6 0 0 1 4.7.7c1.3.7 1.7 1.7 1.3 2.8s-1.5 2.2-3.4 3.4a14.3 14.3 0 0 1-5.8 2 7.4 7.4 0 0 1-4.7-.7c-1.2-.7-1.7-1.7-1.3-2.7s1.6-2.3 3.5-3.4ZM163.4 205.8l4.7 2.8-2.1 1.3-4.7-2.7a4 4 0 0 0-2.5-.6 7.1 7.1 0 0 0-2.8 1 4.6 4.6 0 0 0-2.2 2.2c-.3.7 0 1.3.7 1.7l4.4 2.6-2.3 1.4-7.8-4.6 2.3-1.4 1.2.7a2.8 2.8 0 0 1 .9-1.7 10.4 10.4 0 0 1 2.1-1.8 10.8 10.8 0 0 1 4.4-1.6 5.5 5.5 0 0 1 3.7.7ZM163.2 202.3l2.4-1.4 10.8 1.3-2.3-6.4 2.4-1.4 2.8 7.6-3 1.8ZM194.6 187.8l.6.4-10.2 6a6.3 6.3 0 0 0 3.4.5 11.8 11.8 0 0 0 4.2-1.7 17 17 0 0 0 2.3-1.6 13.7 13.7 0 0 0 1.9-1.8l1.2.7a16 16 0 0 1-2 1.7l-2.4 1.6a17.8 17.8 0 0 1-6.4 2.4 7.3 7.3 0 0 1-4.8-.5c-1.3-.8-1.7-1.8-1.3-3s1.7-2.2 3.7-3.5a14.2 14.2 0 0 1 5.4-2 7 7 0 0 1 4.5.8Zm-2.5 1a4 4 0 0 0-2.8-.2 8.5 8.5 0 0 0-3.3 1.2 6 6 0 0 0-2.4 2.1 1.4 1.4 0 0 0 .4 1.9ZM203.7 179.6l-1 .3a5.8 5.8 0 0 0-1 .6 4.6 4.6 0 0 0-2.2 2.1c-.3.7.1 1.2 1 1.8l4.2 2.4-2.3 1.3-7.8-4.5 2.3-1.4 1.2.7a2.4 2.4 0 0 1 .7-1.7 11.3 11.3 0 0 1 2.5-1.8l.5-.3a3 3 0 0 1 .6-.3ZM204.9 174.8l2.2 1.3 4.6-2.7 1 .5-4.6 2.8 4.3 2.5a2.6 2.6 0 0 0 1.8.4 6.3 6.3 0 0 0 2-.9l2.4-1.4 1 .6-2.3 1.4a13.2 13.2 0 0 1-4 1.8 4.5 4.5 0 0 1-3-.6l-4.4-2.5-1.7 1-1-.6 1.7-1-2.2-1.3 2.2-1.3Z" fill="#fff"/></svg>